<svg width="16" height="16" viewBox="0 0 16 16" fill="none" xmlns="http://www.w3.org/2000/svg">
<path d="M2.45796 5.51527C2.39431 5.45512 2.31944 5.4081 2.23763 5.37689C2.15581 5.34568 2.06864 5.33089 1.98111 5.33337C1.89357 5.33584 1.80738 5.35554 1.72746 5.39132C1.64753 5.42711 1.57544 5.47829 1.5153 5.54193C1.45515 5.60558 1.40813 5.68045 1.37692 5.76227C1.34571 5.84409 1.33092 5.93126 1.3334 6.01879C1.33587 6.10633 1.35557 6.19252 1.39135 6.27244C1.42714 6.35236 1.47831 6.42446 1.54196 6.4846L7.54196 12.1513C7.66574 12.2683 7.82962 12.3335 7.99996 12.3335C8.1703 12.3335 8.33418 12.2683 8.45796 12.1513L14.4586 6.4846C14.5237 6.42485 14.5762 6.35278 14.6131 6.27256C14.6501 6.19234 14.6707 6.10558 14.6739 6.01732C14.677 5.92905 14.6626 5.84105 14.6314 5.75841C14.6002 5.67577 14.553 5.60015 14.4923 5.53594C14.4317 5.47172 14.3589 5.4202 14.2782 5.38435C14.1975 5.34851 14.1104 5.32906 14.0221 5.32714C13.9338 5.32521 13.846 5.34086 13.7638 5.37315C13.6816 5.40545 13.6067 5.45375 13.5433 5.51527L7.99996 10.7499L2.45796 5.51527Z" fill="#0C419A"/>
</svg>
