<svg width="512px" height="512px" version="1.1" viewBox="0 0 512 512" xml:space="preserve" xmlns="http://www.w3.org/2000/svg" xmlns:xlink="http://www.w3.org/1999/xlink"><path d="M224,435.8V76.1c0-6.7-5.4-12.1-12.2-12.1h-71.6c-6.8,0-12.2,5.4-12.2,12.1v359.7c0,6.7,5.4,12.2,12.2,12.2h71.6C218.6,448,224,442.6,224,435.8z" fill="white"/><path d="M371.8,64h-71.6c-6.7,0-12.2,5.4-12.2,12.1v359.7c0,6.7,5.4,12.2,12.2,12.2h71.6c6.7,0,12.2-5.4,12.2-12.2V76.1C384,69.4,378.6,64,371.8,64z" fill="white"/></svg>
