<svg xmlns="http://www.w3.org/2000/svg" xmlns:xlink="http://www.w3.org/1999/xlink" width="22" height="20" viewBox="0 0 22 20"><defs><clipPath id="a"><path d="M0,0H21L7,17H0Z" transform="translate(0 1)" fill="none"/></clipPath><clipPath id="b"><path d="M0,0H14L0,17Z" transform="translate(22 18) rotate(180)" fill="none"/></clipPath></defs><path d="M0,0H21L7,17H0Z" transform="translate(0 1)" fill="none"/><g clip-path="url(#a)"><path d="M-1.535,11.369A6.292,6.292,0,0,0,0,7.277C0,3.074-4.246,0-9,0c-4.724,0-9,3.051-9,7.277,0,4.4,5.049,8.512,11.976,6.878A22.079,22.079,0,0,0-.041,16,11.181,11.181,0,0,1-1.535,11.369Z" transform="translate(21 2)" fill="#fff"/></g><path d="M0,0H14L0,17Z" transform="translate(22 18) rotate(-180)" fill="none"/><g clip-path="url(#b)"><path d="M-1.535,11.369A6.292,6.292,0,0,0,0,7.277C0,3.074-4.246,0-9,0c-4.724,0-9,3.051-9,7.277,0,4.4,5.049,8.512,11.976,6.878A22.079,22.079,0,0,0-.041,16,11.181,11.181,0,0,1-1.535,11.369Z" transform="translate(21 2)" fill="#fff"/></g><path d="M17,1.058,1.313,20,0,18.942,15.687,0Z" transform="translate(4)" fill="#fff"/></svg>
