<svg width="72" height="72" viewBox="0 0 72 72" fill="none" xmlns="http://www.w3.org/2000/svg">
<path d="M32.2113 55.8274C31.1913 55.8274 30.1713 55.4417 29.3999 54.6617C28.6285 53.8902 28.2428 52.8874 28.2342 51.8759C27.2228 51.8759 26.2199 51.4817 25.4485 50.7102C24.7028 49.9645 24.2913 48.9788 24.2828 47.9245C23.2713 47.9245 22.2685 47.5302 21.497 46.7588C20.7256 45.9874 20.3399 44.9845 20.3313 43.9731C19.3199 43.9731 18.317 43.5788 17.5456 42.8074C16.7913 42.0531 16.3799 41.0588 16.3799 39.996C16.3799 38.9331 16.7913 37.9302 17.5456 37.1845L18.2485 36.4817C16.4227 34.2788 15.4285 31.5274 15.4285 28.6302C15.4285 25.3302 16.7142 22.2273 19.0456 19.8959C23.5885 15.353 30.8313 15.096 35.6827 19.1331C40.5342 15.096 47.7685 15.353 52.3199 19.8959C54.6513 22.2273 55.937 25.3302 55.937 28.6302C55.937 31.5274 54.9428 34.2788 53.117 36.4817L53.7856 37.1502C55.337 38.7016 55.3285 41.2217 53.7856 42.7731C53.0142 43.5445 52.0113 43.9302 50.9999 43.9388C50.9999 44.9931 50.5799 45.9788 49.8342 46.7245C49.0628 47.4959 48.0599 47.8816 47.0485 47.8902C47.0485 48.9445 46.6285 49.9302 45.8828 50.6759C45.137 51.4216 44.1513 51.833 43.097 51.8416C43.097 52.853 42.7028 53.8559 41.9313 54.6273C40.3799 56.1788 37.8513 56.1788 36.2999 54.6273L35.6742 54.0016L35.0142 54.6617C34.2342 55.4331 33.2227 55.8274 32.2027 55.8274H32.2113ZM31.7399 50.0502L31.0713 50.7188C30.7713 51.0188 30.5999 51.4216 30.5999 51.8502C30.5999 52.2788 30.7628 52.6817 31.0713 52.9817C31.697 53.6074 32.717 53.6074 33.3427 52.9817L34.0028 52.3217L31.7313 50.0502H31.7399ZM27.7885 18.6617C25.2342 18.6617 22.6799 19.6302 20.7342 21.576C18.8485 23.4617 17.8113 25.9645 17.8113 28.6302C17.8113 31.2959 18.8485 33.7988 20.7342 35.6845L37.997 52.9474C38.6228 53.5731 39.6427 53.5731 40.2685 52.9474C40.8942 52.3217 40.8942 51.3016 40.2685 50.6759L30.1113 40.5274C29.6485 40.0645 29.6485 39.3103 30.1113 38.8474C30.5742 38.3846 31.3285 38.3846 31.7913 38.8474L41.9485 48.9959C42.557 49.6045 43.6113 49.6045 44.2199 48.9959C44.5199 48.6959 44.6913 48.293 44.6913 47.8645C44.6913 47.4359 44.5285 47.0331 44.2199 46.7331L34.0627 36.5845C33.5999 36.1217 33.5999 35.3673 34.0627 34.9045C34.5256 34.4416 35.2799 34.4416 35.7428 34.9045L45.8999 45.0531C46.5256 45.6788 47.5456 45.6788 48.1713 45.0531C48.4713 44.7531 48.6428 44.3502 48.6428 43.9216C48.6428 43.4931 48.4799 43.0902 48.1713 42.7902L38.0142 32.6416C37.5513 32.1787 37.5513 31.4245 38.0142 30.9616C38.477 30.4988 39.2313 30.4988 39.6942 30.9616L49.8513 41.1102C50.477 41.7359 51.497 41.7359 52.1227 41.1102C52.7485 40.4845 52.7485 39.4645 52.1227 38.8388L50.6742 37.3902L50.657 37.373L50.6399 37.3559L40.1399 26.8559C39.8742 26.5902 39.437 26.5902 39.1713 26.8559L34.4142 31.6045C32.1685 33.8502 28.7142 34.2445 26.0228 32.5473C25.4656 32.1959 25.097 31.613 25.0285 30.9445C24.9513 30.2502 25.1913 29.5731 25.6799 29.0845L33.977 20.7874C32.1685 19.3645 29.9827 18.6531 27.797 18.6531L27.7885 18.6617ZM27.7885 46.1074L27.1285 46.7674C26.8285 47.0674 26.657 47.4702 26.657 47.8988C26.657 48.3274 26.8199 48.7302 27.1285 49.0302C27.7542 49.6559 28.7742 49.6559 29.3999 49.0302L30.0685 48.3703L27.797 46.0988L27.7885 46.1074ZM23.837 42.156L23.1685 42.8245C22.5428 43.4502 22.5428 44.4702 23.1685 45.0959C23.7942 45.7216 24.8142 45.7216 25.4399 45.0959L26.0999 44.4359L23.8285 42.1645L23.837 42.156ZM19.8856 38.2046L19.217 38.873C18.917 39.173 18.7456 39.576 18.7456 40.0045C18.7456 40.4331 18.9085 40.8359 19.217 41.1359C19.8428 41.7616 20.8627 41.7616 21.4885 41.1359L22.157 40.4673L19.8856 38.196V38.2046ZM39.6342 24.276C40.4142 24.276 41.2027 24.5759 41.7942 25.1673L51.4199 34.793C52.7999 33.0445 53.5542 30.8931 53.5542 28.6302C53.5542 25.9645 52.517 23.4617 50.6313 21.576C46.7742 17.7188 40.5256 17.6845 36.6256 21.4645C36.5913 21.5074 36.557 21.5417 36.5228 21.5845L27.4542 30.6531C29.1513 31.6045 31.3285 31.3131 32.717 29.9245L37.4742 25.1759C38.0742 24.5845 38.8542 24.2845 39.6342 24.2845V24.276Z" fill="#0C419A"/>
<circle cx="36" cy="36" r="34.5" stroke="#0C419A" stroke-width="3"/>
</svg>
