<svg width="72" height="72" viewBox="0 0 72 72" fill="none" xmlns="http://www.w3.org/2000/svg">
<path d="M51.1937 23.0398C47.5222 18.5556 42.267 16.2856 35.564 16.2856C27.9891 16.2856 22.15 19.3469 18.6785 25.1259C16.9427 28.0194 15.7989 31.6483 15.447 35.3411V35.445C15.367 35.8846 15.551 36.3322 15.9109 36.596C16.2709 36.8597 16.7508 36.8997 17.1507 36.6999C23.3418 33.6545 27.6372 38.0428 27.8291 38.2346C28.0531 38.4744 28.3731 38.6023 28.701 38.6102C28.997 38.6102 29.3489 38.4744 29.5729 38.2426C29.6529 38.1627 31.3486 36.4442 34.5482 36.0925V51.9906C34.5482 52.782 33.9003 53.4294 33.1084 53.4294C32.3165 53.4294 31.6686 52.782 31.6686 51.9906C31.6686 51.3272 31.1327 50.7917 30.4688 50.7917C29.8049 50.7917 29.269 51.3272 29.269 51.9906C29.269 54.1088 30.9887 55.8274 33.1084 55.8274C35.2281 55.8274 36.9478 54.1088 36.9478 51.9906V36.1244C40.0593 36.58 41.8111 38.5703 41.8831 38.6582C42.1071 38.922 42.435 39.0819 42.787 39.0899H42.8029C43.1469 39.0899 43.4749 38.938 43.7068 38.6823C43.7468 38.6423 47.6902 34.278 54.2972 36.8278C54.6252 36.9557 54.9932 36.9317 55.3051 36.7639C55.6171 36.596 55.833 36.2923 55.905 35.9486C56.105 34.9734 55.4651 28.2592 51.1937 23.0478V23.0398ZM42.8269 36.2443C41.6031 35.2132 39.1635 33.6386 35.692 33.6386C32.2205 33.6386 29.9089 34.9654 28.717 35.8447C27.0613 34.5498 23.1578 32.1998 18.0866 33.7585C18.9825 28.6509 22.414 18.6836 35.564 18.6836C41.0912 18.6836 45.4986 20.4021 48.6581 23.7832C51.8976 27.2521 53.0574 31.6883 53.4094 34.0302C48.1302 32.6874 44.4427 34.9255 42.8189 36.2443H42.8269Z" fill="#00AB8E"/>
<path d="M51.3616 44.3493H48.1781V41.1681C48.1781 40.6166 47.7301 40.1689 47.1782 40.1689H44.1867C43.6347 40.1689 43.1868 40.6166 43.1868 41.1681V44.3493H40.0033C39.4514 44.3493 39.0034 44.7969 39.0034 45.3484V48.3378C39.0034 48.8894 39.4514 49.337 40.0033 49.337H43.1868V52.5182C43.1868 53.0697 43.6347 53.5173 44.1867 53.5173H47.1782C47.7301 53.5173 48.1781 53.0697 48.1781 52.5182V49.337H51.3616C51.9135 49.337 52.3615 48.8894 52.3615 48.3378V45.3484C52.3615 44.7969 51.9135 44.3493 51.3616 44.3493ZM50.3618 47.3387H47.1782C46.6263 47.3387 46.1784 47.7863 46.1784 48.3378V51.5191H45.1865V48.3378C45.1865 47.7863 44.7386 47.3387 44.1867 47.3387H41.0031V46.3476H44.1867C44.7386 46.3476 45.1865 45.9 45.1865 45.3484V42.1672H46.1784V45.3484C46.1784 45.9 46.6263 46.3476 47.1782 46.3476H50.3618V47.3387Z" fill="#00AB8E"/>
<circle cx="36" cy="36" r="34.5" stroke="#00AB8E" stroke-width="3"/>
</svg>
