<svg width="72" height="72" viewBox="0 0 72 72" fill="none" xmlns="http://www.w3.org/2000/svg">
<path d="M29.0599 48.1719C29.4269 48.2665 29.8023 48.3138 30.1693 48.3138C30.9034 48.3138 31.6374 48.1324 32.2881 47.7698C33.5977 47.0523 34.4152 45.7199 34.4152 44.285C34.4152 43.5833 34.215 42.8896 33.848 42.2825C33.2807 41.3522 32.3632 40.6899 31.2704 40.4061C30.1693 40.1301 29.0265 40.2721 28.0422 40.8082C26.7325 41.5256 25.915 42.858 25.915 44.2929C25.915 44.9946 26.1153 45.6884 26.4823 46.2954C27.0495 47.2258 27.9671 47.888 29.0599 48.1719ZM27.9838 44.2929C27.9838 43.5597 28.4009 42.8738 29.0682 42.5032C29.4019 42.3219 29.7773 42.2273 30.1526 42.2273C30.3445 42.2273 30.5363 42.2509 30.7199 42.2982C31.2871 42.4401 31.7542 42.7792 32.0462 43.2601C32.238 43.5755 32.3381 43.9302 32.3381 44.285C32.3381 45.0182 31.9211 45.7042 31.2454 46.0747C30.7365 46.3507 30.1526 46.4216 29.5854 46.2797C29.0265 46.1377 28.551 45.7909 28.259 45.3178C28.0672 45.0025 27.9671 44.6477 27.9671 44.2929H27.9838Z" fill="#A05BB6"/>
<path d="M41.614 46.9657L39.6203 45.5386C39.7455 44.7029 39.7455 43.8672 39.6203 43.0315L41.614 41.6124C42.0311 41.3128 42.1478 40.7688 41.8892 40.343L39.6454 36.6848C39.3868 36.2591 38.8279 36.0857 38.344 36.2749L36.0501 37.1894C35.3494 36.6691 34.582 36.2433 33.7478 35.928L33.4391 33.5864C33.3724 33.0976 32.9303 32.7271 32.4131 32.7271H27.9253C27.3998 32.7271 26.966 33.0976 26.8993 33.5864L26.599 35.9201C26.1902 36.0778 25.7898 36.2591 25.4061 36.472C25.0224 36.677 24.647 36.9135 24.2967 37.1737L22.0027 36.2512C21.5189 36.0541 20.96 36.2354 20.7014 36.6612L18.4492 40.3273C18.1906 40.753 18.3073 41.3049 18.7161 41.5966L20.7097 43.0236C20.5846 43.8593 20.5846 44.695 20.7097 45.5308L18.7161 46.9499C18.299 47.2495 18.1822 47.7935 18.4408 48.2192L20.6847 51.8774C20.9433 52.3031 21.5022 52.4766 21.986 52.2874L24.2883 51.3728C24.989 51.8932 25.7564 52.311 26.5906 52.6264L26.8993 54.9679C26.966 55.4567 27.4081 55.8273 27.9253 55.8273H32.4131C32.9303 55.8273 33.3724 55.4567 33.4391 54.96L33.7394 52.6264C34.1482 52.4687 34.5486 52.2874 34.9323 52.0745C35.316 51.8695 35.6914 51.633 36.0417 51.3728L38.3357 52.2952C38.8112 52.4845 39.3701 52.311 39.637 51.8853L41.8892 48.2192C41.981 48.0694 42.0311 47.9038 42.0311 47.7304C42.0311 47.4229 41.8809 47.1312 41.6223 46.9499L41.614 46.9657ZM22.4615 46.737C22.7868 46.5084 22.937 46.122 22.8452 45.7436C22.62 44.7896 22.62 43.7805 22.8452 42.8186C22.9286 42.4481 22.7785 42.0618 22.4615 41.8331L20.6931 40.5717L22.0277 38.4035L24.0631 39.2235C24.4301 39.3733 24.8639 39.3023 25.1642 39.05C25.5479 38.7189 25.9733 38.4272 26.4321 38.1828C26.8993 37.9305 27.3747 37.7255 27.8586 37.5836C28.2423 37.4654 28.5259 37.15 28.5676 36.7716L28.8345 34.6981H31.4955L31.7708 36.7716C31.8209 37.15 32.0961 37.4654 32.4798 37.5836C33.4892 37.8911 34.3901 38.3878 35.1659 39.0579C35.4662 39.3181 35.8916 39.3812 36.267 39.2314L38.3107 38.4193L39.637 40.5874L37.8686 41.8489C37.5516 42.0775 37.3931 42.4638 37.4848 42.8344C37.7017 43.7883 37.7101 44.8054 37.4848 45.7594C37.4014 46.1299 37.5516 46.5162 37.8769 46.7449L39.6454 48.0063L38.3107 50.1744L36.267 49.3545C35.8999 49.2047 35.4662 49.2757 35.1659 49.528C34.7905 49.8512 34.3651 50.1429 33.8979 50.3952C33.4308 50.6475 32.9553 50.8525 32.4715 50.9944C32.0878 51.1127 31.8042 51.428 31.7541 51.8064L31.4872 53.8799H28.8262L28.5509 51.8064C28.5009 51.428 28.2256 51.1127 27.8419 50.9944C26.8325 50.6869 25.9316 50.1902 25.1558 49.5201C24.964 49.3545 24.7137 49.2678 24.4635 49.2678C24.33 49.2678 24.1882 49.2914 24.0631 49.3466L22.0194 50.1587L20.6931 47.9906L22.4615 46.7291V46.737Z" fill="#A05BB6"/>
<path d="M41.414 28.7536C43.1407 28.7536 44.5421 27.4291 44.5421 25.7971C44.5421 24.1651 43.1407 22.8406 41.414 22.8406C39.6873 22.8406 38.2859 24.1651 38.2859 25.7971C38.2859 27.4291 39.6873 28.7536 41.414 28.7536ZM41.414 26.7826C40.8384 26.7826 40.3713 26.3411 40.3713 25.7971C40.3713 25.2531 40.8384 24.8116 41.414 24.8116C41.9896 24.8116 42.4567 25.2531 42.4567 25.7971C42.4567 26.3411 41.9896 26.7826 41.414 26.7826Z" fill="#A05BB6"/>
<path d="M48.6882 32.1752L47.9124 30.4486C48.3379 29.9282 48.6799 29.3606 48.9468 28.7614L50.9238 28.5328C51.441 28.4697 51.833 28.0518 51.833 27.563V24.031C51.833 23.5422 51.441 23.1243 50.9238 23.0612L48.9468 22.8326C48.6799 22.2334 48.3379 21.6657 47.9124 21.1375L48.6882 19.4109C48.8968 18.9537 48.7049 18.4254 48.2544 18.181L45.0012 16.415C44.5507 16.1706 43.9752 16.281 43.6665 16.6752L42.4653 18.1731C41.773 18.0943 41.0806 18.0864 40.3882 18.1731L39.187 16.6752C38.8701 16.281 38.2945 16.1706 37.8524 16.415L34.5991 18.181C34.1487 18.4254 33.9568 18.9537 34.157 19.4109L34.9328 21.1375C34.5074 21.6579 34.1654 22.2255 33.8984 22.8326L31.9214 23.0612C31.4043 23.1243 31.0122 23.5422 31.0122 24.031V27.563C31.0122 28.0518 31.4043 28.4697 31.9214 28.5328L33.8984 28.7614C34.1654 29.3606 34.5074 29.9282 34.9328 30.4486L34.157 32.1752C33.9485 32.6325 34.1403 33.1607 34.5991 33.4051L37.8524 35.1711C38.0109 35.2579 38.186 35.2973 38.3612 35.2973C38.6782 35.2973 38.9868 35.1632 39.187 34.9109L40.3882 33.413C41.0806 33.4997 41.7813 33.4997 42.4737 33.413L43.6749 34.9109C43.9918 35.3051 44.5674 35.4155 45.0179 35.1711L48.2711 33.4051C48.7216 33.1607 48.9134 32.6325 48.7049 32.1752H48.6882ZM37.0682 30.6693C37.2267 30.3224 37.1517 29.9125 36.8847 29.6365C36.3092 29.0294 35.8837 28.3357 35.6252 27.5709C35.5 27.2082 35.1664 26.9481 34.766 26.9008L33.0726 26.7037V24.8982L34.766 24.7011C35.1664 24.6538 35.5 24.3858 35.6252 24.031C35.8837 23.2662 36.3092 22.5724 36.8847 21.9654C37.1517 21.6815 37.2267 21.2794 37.0682 20.9247L36.4093 19.4503L38.0776 18.5437L39.1036 19.8209C39.3455 20.1205 39.7543 20.2624 40.138 20.1836C40.9722 20.018 41.8564 20.018 42.6822 20.1836C43.0743 20.2624 43.483 20.1205 43.7249 19.8209L44.7509 18.5358L46.4193 19.4424L45.7603 20.9168C45.6018 21.2637 45.6769 21.6736 45.9438 21.9575C46.5194 22.5645 46.9448 23.2583 47.2034 24.0231C47.3285 24.3857 47.6622 24.6459 48.0626 24.6932L49.756 24.8903V26.6958L48.0626 26.8929C47.6622 26.9402 47.3285 27.2004 47.2034 27.563C46.9448 28.3278 46.5194 29.0216 45.9438 29.6286C45.6769 29.9125 45.6018 30.3146 45.7603 30.6693L46.4193 32.1437L44.7509 33.0503L43.7249 31.7652C43.5247 31.5208 43.2161 31.3789 42.8991 31.3789C42.824 31.3789 42.7489 31.3789 42.6822 31.4026C41.8647 31.5681 40.9638 31.5681 40.1463 31.4026C39.7543 31.3237 39.3455 31.4656 39.1036 31.7652L38.0776 33.0503L36.4093 32.1437L37.0682 30.6693Z" fill="#A05BB6"/>
<path d="M25.1892 22.5251L24.8055 24.6853C24.7137 25.2135 25.0974 25.7181 25.6563 25.8127C25.7147 25.8206 25.7731 25.8285 25.8231 25.8285C26.3236 25.8285 26.7574 25.4895 26.8408 25.0085L27.5666 20.9167C27.5749 20.8615 27.5832 20.8063 27.5832 20.759C27.5832 20.625 27.5499 20.4989 27.4998 20.3885C27.4998 20.3885 27.4998 20.3727 27.4998 20.3648C27.4831 20.3412 27.4581 20.3175 27.4498 20.2939C27.408 20.2229 27.358 20.152 27.2996 20.0889C27.2662 20.0574 27.2245 20.0337 27.1912 20.0022C27.1328 19.9549 27.066 19.9154 26.991 19.8839C26.9659 19.876 26.9576 19.8603 26.9326 19.8445C26.8992 19.8366 26.8742 19.8445 26.8408 19.8287C26.7991 19.8208 26.7741 19.7972 26.7324 19.7893L22.4031 19.1034C22.1278 19.064 21.8608 19.1191 21.6356 19.2689C21.4104 19.4187 21.2602 19.6474 21.2185 19.9075C21.1268 20.4358 21.5105 20.9404 22.0694 21.035L23.4708 21.2557C20.034 23.3608 17.1478 26.5065 15.5128 30.078C15.2876 30.5747 15.5295 31.1502 16.0467 31.3631C16.1802 31.4183 16.322 31.4419 16.4554 31.4419C16.8558 31.4419 17.2396 31.2212 17.4064 30.8506C18.983 27.4132 21.8275 24.4093 25.1975 22.5251H25.1892Z" fill="#A05BB6"/>
<path d="M55.9121 37.0869C55.9288 37.016 55.9371 36.945 55.9371 36.8819C55.9371 36.4246 55.5951 36.0226 55.1196 35.928C54.8527 35.8728 54.5691 35.9201 54.3439 36.062C54.1103 36.2039 53.9518 36.4247 53.8934 36.677C53.0676 40.28 50.9321 43.6938 48.0626 46.1299L47.9958 44.1747C47.9875 43.9145 47.8707 43.6701 47.6705 43.4888C47.4703 43.3074 47.2117 43.2207 46.9281 43.2207C46.3609 43.2365 45.9188 43.678 45.9271 44.2299L46.0606 48.1483C46.0606 48.1483 46.0773 48.2034 46.0856 48.235C46.0856 48.298 46.1106 48.3532 46.1273 48.4084C46.1523 48.4715 46.1774 48.5267 46.2107 48.5898C46.2274 48.6213 46.2274 48.6528 46.2524 48.6765C46.2775 48.7159 46.3108 48.7395 46.3442 48.7711C46.3609 48.7868 46.3692 48.8026 46.3859 48.8105C46.4693 48.8893 46.5611 48.9524 46.6612 48.9918C46.6778 48.9918 46.6946 48.9997 46.7112 49.0076C46.803 49.047 46.9031 49.0628 47.0115 49.0786C47.0282 49.0786 47.0365 49.0865 47.0532 49.0865L51.2491 49.2599C51.2491 49.2599 51.2825 49.2599 51.2908 49.2599C51.8414 49.2599 52.3001 48.8499 52.3252 48.3375V48.2823C52.3252 47.754 51.8914 47.3283 51.3409 47.3047L49.806 47.2416C52.809 44.5531 55.0362 40.9186 55.9121 37.079V37.0869Z" fill="#A05BB6"/>
<circle cx="36" cy="36" r="34.5" stroke="#A05BB6" stroke-width="3"/>
</svg>
