<svg width="72" height="72" viewBox="0 0 72 72" fill="none" xmlns="http://www.w3.org/2000/svg">
<path d="M35.3084 10.2856C28.7884 10.2856 18.4285 14.7957 18.4285 26.8857C18.4285 33.5257 22.2284 37.2256 24.9984 39.9356C26.2484 41.1556 27.4185 42.2957 27.4185 43.0157V46.3756C27.4185 47.6256 27.9685 48.5957 29.0385 49.2857V56.3357C29.0085 56.7457 29.1284 57.1256 29.3984 57.4256C29.4584 57.4956 29.7584 57.8157 30.2484 58.2157C30.3384 58.8857 30.6285 60.1356 31.6785 61.1756C32.6185 62.1256 33.8884 62.6256 35.3284 62.6256C36.7684 62.6256 38.0385 62.1256 38.9785 61.1756C40.0385 60.1056 40.3284 58.8456 40.4084 58.1756C40.4084 58.1656 40.4084 58.1557 40.4084 58.1357C40.6484 57.9457 40.8984 57.7457 41.1384 57.5257C41.4584 57.2357 41.6285 56.7957 41.5984 56.4157L41.6284 49.2257C42.6584 48.5457 43.1785 47.5856 43.1785 46.3656V43.0056C43.1785 42.2956 44.3585 41.1456 45.6085 39.9256C48.3785 37.2156 52.1785 33.5157 52.1785 26.8857C52.1785 14.7957 41.8285 10.2856 35.2985 10.2856H35.3084ZM27.0485 37.8457C24.5185 35.3757 21.3585 32.2957 21.3585 26.8857C21.3585 16.9257 29.9184 13.2057 35.3084 13.2057C40.6984 13.2057 49.2584 16.9157 49.2584 26.8857C49.2584 32.2957 46.1084 35.3657 43.5684 37.8457C41.7984 39.5757 40.2584 41.0757 40.2584 43.0157V46.3756C40.2584 46.9156 38.9585 47.5456 35.2985 47.5456C31.6385 47.5456 30.3384 46.9156 30.3384 46.3756V43.0157C30.3384 41.0657 28.8084 39.5757 27.0284 37.8457H27.0485ZM31.9785 55.5656C34.1285 55.9856 36.4884 55.9857 38.7084 55.5357V55.7657C37.4784 56.7557 36.2485 57.2057 35.0485 57.1557C33.6685 57.0857 32.5685 56.3457 31.9785 55.8357V55.5656ZM35.3084 50.4657C36.6684 50.4657 37.7684 50.3956 38.7084 50.2456V52.5357C35.7084 53.2657 33.1685 52.8556 31.9785 52.5656V50.2556C32.9085 50.3956 33.9884 50.4657 35.3084 50.4657ZM34.8684 59.0656C35.2884 59.0956 35.7084 59.0757 36.1384 59.0257C35.8784 59.3557 35.5784 59.6956 35.3384 59.6956C35.1184 59.6956 34.8284 59.3556 34.5884 59.0456C34.6784 59.0456 34.7784 59.0656 34.8684 59.0656Z" fill="#E11A81"/>
<circle cx="36" cy="36" r="34.5" stroke="#E11A81" stroke-width="3"/>
</svg>
